<svg xmlns="http://www.w3.org/2000/svg" xmlns:xlink="http://www.w3.org/1999/xlink" width="800" height="220" viewBox="0 0 800 220"><defs><clipPath id="a"><rect width="764.828" height="220" fill="none"/></clipPath><clipPath id="c"><rect width="800" height="220"/></clipPath></defs><g id="b" clip-path="url(#c)"><g transform="translate(18 0)"><g transform="translate(0 0)" clip-path="url(#a)"><path d="M85.357,199.026a117.068,117.068,0,0,1-54.941-13.58l-.554-.292.444-.444c40.473-40.2,77.384-103.5,103.939-178.236l.106-.308h.927l-.133.581c-.33,1.227-33.034,123.325-49.34,191.926l-.084.353Z" transform="translate(83.534 17.25)" fill="#fff"/><path d="M135.265,6.968S102.418,129.507,85.922,198.9A116.222,116.222,0,0,1,31.2,185.378l0,0C70.861,145.98,108.14,83.254,135.243,6.968Zm1.2-.923h-1.872l-.22.611c-26.529,74.676-63.4,137.911-103.825,178.065l-.889.885,1.113.585a117.476,117.476,0,0,0,55.15,13.637h.729l.167-.71c16.306-68.593,49.01-190.688,49.336-191.91Z" transform="translate(82.969 16.912)" fill="#fff"/><path d="M141.753,20.84l-22.154,90.2C102.5,76.681,94.669,38.817,91.943,1.1H1.609c-4.88,7.348,22.967,152.581,109.552,198.1C150.825,159.811,188.1,97.085,215.207,20.8Z" transform="translate(3.004 3.081)" fill="#f05534"/><path d="M141.753,20.84l-22.154,90.2C102.5,76.681,94.669,38.817,91.943,1.1H1.609c-4.88,7.348,22.967,152.581,109.552,198.1C150.825,159.811,188.1,97.085,215.207,20.8Z" transform="translate(3.004 3.081)" fill="none" stroke="#f05634" stroke-miterlimit="10" stroke-width="0.243"/><path d="M4.613,4.181H94.946C97.673,41.9,105.5,79.761,122.6,114.124l22.154-90.2,73.476-.042S185.386,146.417,168.89,215.815C39.1,215.716-1.174,12.9,4.613,4.181M4.613,0A4.181,4.181,0,0,0,1.131,1.868C-4.166,9.843,9.379,72.937,36.948,124.4c23.354,43.583,65.2,95.551,131.938,95.6h0a4.183,4.183,0,0,0,4.067-3.216c16.295-68.547,48.987-190.6,49.313-191.823a4.178,4.178,0,0,0-4.037-5.263h0l-73.473.042a4.18,4.18,0,0,0-4.059,3.182l-19.321,78.667c-12.25-28.169-19.553-60.269-22.26-97.708A4.18,4.18,0,0,0,94.946,0Z" transform="translate(0.001 0.001)" fill="#231f20"/><path d="M135.545,6.288C108.442,82.574,71.163,145.3,31.5,184.695l-1.952,1.849" transform="translate(82.667 17.592)" fill="none" stroke="#231f20" stroke-miterlimit="10" stroke-width="1.101"/><circle cx="17.696" cy="17.696" r="17.696" transform="translate(200.536 179.108)" fill="none" stroke="#221f1f" stroke-miterlimit="10" stroke-width="1"/><path d="M55.422,69.716V48.887h8.844a15.171,15.171,0,0,1,4.853.562,4.8,4.8,0,0,1,2.423,2,6.024,6.024,0,0,1,.915,3.281,5.571,5.571,0,0,1-1.382,3.87,6.612,6.612,0,0,1-4.124,1.929A9.556,9.556,0,0,1,69.2,62.273a23.3,23.3,0,0,1,2.4,3.38l2.548,4.063H69.116l-3.042-4.53a29.558,29.558,0,0,0-2.214-3.065,3.329,3.329,0,0,0-1.265-.866,6.973,6.973,0,0,0-2.123-.235h-.851v8.7Zm4.2-12.019h3.11a16.067,16.067,0,0,0,3.778-.254,2.277,2.277,0,0,0,1.181-.881A2.683,2.683,0,0,0,68.117,55a2.506,2.506,0,0,0-.558-1.7,2.574,2.574,0,0,0-1.584-.816q-.513-.074-3.072-.072H59.622Z" transform="translate(155.039 136.759)" fill="#221f1f"/><path d="M137.518,10.188l-27.2,64.131H82.668l7.42-64.131h19.2q-4.067,26.5-7.766,44.84,6.6-18.535,12.2-32.912l4.6-11.928Z" transform="translate(231.258 28.502)" fill="#231f20"/><path d="M117.091,34.3H100.705l.987-3.528a28.954,28.954,0,0,1,4.166-9.406,20.375,20.375,0,0,1,7.792-5.84,29.376,29.376,0,0,1,12.729-2.537q8.863,0,12.558,2.871a7.955,7.955,0,0,1,3.429,7.052q-.256,4.181-3.9,17.21L131.085,66.5h-16.99l1.31-4.686a16.18,16.18,0,0,1-5.313,4.23,14.617,14.617,0,0,1-6.425,1.409,12.614,12.614,0,0,1-7.747-2.358q-3.173-2.358-.942-10.318l1.208-4.318q1.652-5.907,4.276-8.043t11.472-4.99q9.467-3.093,10.375-4.162a12.693,12.693,0,0,0,1.823-4.356q1.151-4.124.832-5.366a1.686,1.686,0,0,0-1.876-1.249,2.822,2.822,0,0,0-2.5,1.052,23.534,23.534,0,0,0-1.952,5.446Zm3.516,7.208q-4.978,2.814-6.182,4.713a21.354,21.354,0,0,0-2.2,5.464c-.759,2.723-1.059,4.481-.889,5.271s.828,1.189,1.982,1.189a2.9,2.9,0,0,0,2.4-.93,16.782,16.782,0,0,0,1.868-4.891Z" transform="translate(263.122 36.323)" fill="#231f20"/><path d="M138.448,13.933l-1.66,4.846a18.726,18.726,0,0,1,5.867-4.344,15.858,15.858,0,0,1,6.733-1.451q4.494,0,6.8,1.94a6.1,6.1,0,0,1,2.309,4.895q-.006,2.951-1.929,9.843L146.27,66.5H128.8l10.181-36.4a33.043,33.043,0,0,0,1.462-6.615q-.057-1.19-1.83-1.189a2.972,2.972,0,0,0-2.715,1.367,37.271,37.271,0,0,0-2.521,7.306L123.44,66.5H105.976l14.7-52.564Z" transform="translate(296.46 36.323)" fill="#231f20"/><path d="M175.648,42.984,172.625,53.8l-5.67,2.852,3.114,10.694H153.9l-1.1-3.562q-9.507,4.91-16.766,4.91-7.6,0-10.416-4.637t-.984-11.172a16.993,16.993,0,0,1,4.716-8.2,24.553,24.553,0,0,1,8.613-4.83q-5.639-4.557-3.471-12.319a18.8,18.8,0,0,1,7.944-10.773,25.766,25.766,0,0,1,14.715-4.082q7.781,0,11.134,4t1.633,10.181q-1.823,6.5-8.673,11.525L164.548,48.6ZM148.834,56.545,145.61,47.9q-3.993,2.694-4.868,5.821a4.341,4.341,0,0,0,.061,3.387,2.918,2.918,0,0,0,2.681,1.128,12.237,12.237,0,0,0,5.351-1.69m3.015-24.771q3.93-3.537,4.827-6.759a3.545,3.545,0,0,0-.148-2.544,2.092,2.092,0,0,0-2.1-1.151,3.487,3.487,0,0,0-2.4.87,5.422,5.422,0,0,0-1.481,2.666,7.637,7.637,0,0,0,1.306,6.919" transform="translate(346.627 35.476)" fill="#231f20"/><path d="M191.254,10.188l-3.592,12.835H176.854l-14.347,51.3h-18.2l14.347-51.3H147.887l3.592-12.835Z" transform="translate(403.687 28.502)" fill="#231f20"/><path d="M185.652,13.933l-2.624,6.915q5.878-7.428,13.223-7.864l-5.176,18.5A18.151,18.151,0,0,0,183.7,32.67a7.554,7.554,0,0,0-3.691,3.308,63.62,63.62,0,0,0-3.251,9.763L170.948,66.5H153.484l14.7-52.564Z" transform="translate(429.36 36.323)" fill="#231f20"/><path d="M215.5,13.234,200.8,65.8H183.027l1.523-4.367a17.552,17.552,0,0,1-5.59,3.987,15.93,15.93,0,0,1-6.49,1.333,12.612,12.612,0,0,1-6.171-1.268,5.809,5.809,0,0,1-2.886-3.368,9.854,9.854,0,0,1-.311-4.378,91.789,91.789,0,0,1,2.233-9.049l9.915-35.453h17.464L182.708,49.006q-1.72,6.14-1.625,7.283t1.906,1.151a2.812,2.812,0,0,0,2.643-1.189,49.035,49.035,0,0,0,2.506-7.644l9.892-35.373Z" transform="translate(455.946 37.023)" fill="#231f20"/><path d="M220.478,33.779H204.008l1.7-6.061a10.88,10.88,0,0,0,.638-4.3c-.163-.752-.752-1.128-1.758-1.128a2.782,2.782,0,0,0-2.309.991,14.25,14.25,0,0,0-1.758,4.435l-6.938,24.8a8.531,8.531,0,0,0-.4,4.215,1.775,1.775,0,0,0,1.9,1.405,3.261,3.261,0,0,0,2.806-1.462,19.859,19.859,0,0,0,2.176-5.544l1.751-6.262h15.566a88.754,88.754,0,0,1-3.14,9.448,20.628,20.628,0,0,1-4.7,6.456,22.4,22.4,0,0,1-7.777,4.994,28.517,28.517,0,0,1-10.2,1.682q-7.394,0-11.069-2.316a8.943,8.943,0,0,1-4.295-6.5q-.632-4.175,1.519-11.863L181.9,31.838a33.418,33.418,0,0,1,4.295-10.1q2.427-3.4,7.971-6.08a28.258,28.258,0,0,1,12.421-2.67q6.83,0,10.929,2.651t4.572,6.695q.467,4.044-1.606,11.449" transform="translate(492.504 36.323)" fill="#231f20"/><path d="M239.607,21.755,226.661,42.69l.361,31.629h-16.8l.961-22.91-6.429,22.91H187.293l17.935-64.131h17.464l-7.5,26.924,9.74-15.357Z" transform="translate(523.94 28.502)" fill="#231f20"/><path d="M117.462,62.8H101.577L104.3,53.07q1.19-4.238.972-5.294t-1.952-1.056A3.225,3.225,0,0,0,100.472,48,21.559,21.559,0,0,0,98.4,53.537L91.127,79.531q-1.139,4.084-.961,5.324c.118.832.8,1.246,2.032,1.246a3.054,3.054,0,0,0,2.662-1.246A22.289,22.289,0,0,0,97.051,79l1.967-7.033H114.9l-.611,2.18q-2.427,8.692-4.785,12.323a19.388,19.388,0,0,1-7.705,6.372,26.151,26.151,0,0,1-12.068,2.738q-6.983,0-10.861-2.32a7.926,7.926,0,0,1-4.2-6.41q-.325-4.1,1.975-12.326L81.215,58.17a77.444,77.444,0,0,1,2.992-9.076,17.391,17.391,0,0,1,4.325-5.829,21.89,21.89,0,0,1,7.462-4.409,28.024,28.024,0,0,1,9.6-1.6q7.018,0,10.895,2.484,3.862,2.489,4.261,6.2t-1.8,11.548Z" transform="translate(208.767 104.217)" fill="#231f20"/><path d="M106.464,58.607h-14.3l.862-3.08a25.269,25.269,0,0,1,3.638-8.21,17.8,17.8,0,0,1,6.8-5.1A25.711,25.711,0,0,1,114.572,40q7.735,0,10.963,2.506a6.96,6.96,0,0,1,2.992,6.152q-.228,3.651-3.406,15.026l-6.44,23.02H103.848l1.143-4.086a14.149,14.149,0,0,1-4.633,3.691,12.839,12.839,0,0,1-5.6,1.227,11.013,11.013,0,0,1-6.767-2.054q-2.763-2.062-.82-9.007l1.056-3.767q1.435-5.155,3.737-7.021t10.01-4.356q8.259-2.694,9.049-3.627a11.062,11.062,0,0,0,1.591-3.805c.672-2.4.911-3.957.729-4.682a1.47,1.47,0,0,0-1.64-1.094,2.469,2.469,0,0,0-2.184.919,20.681,20.681,0,0,0-1.705,4.754Zm3.072,6.289q-4.346,2.455-5.4,4.113a18.64,18.64,0,0,0-1.918,4.77c-.661,2.377-.923,3.908-.775,4.6s.722,1.04,1.728,1.04a2.541,2.541,0,0,0,2.1-.813,14.75,14.75,0,0,0,1.629-4.272Z" transform="translate(241.596 111.907)" fill="#231f20"/><path d="M125.37,40.835l-2.29,6.03q5.132-6.477,11.54-6.862L130.106,56.15a15.921,15.921,0,0,0-6.44,1.037,6.557,6.557,0,0,0-3.224,2.886,55.447,55.447,0,0,0-2.837,8.521l-5.066,18.114H97.292l12.831-45.873Z" transform="translate(272.167 111.907)" fill="#231f20"/><path d="M153.14,40.834l-9.881,35.331a82.971,82.971,0,0,1-2.943,9.247,13.165,13.165,0,0,1-3.786,4.428,19.691,19.691,0,0,1-7.09,3.562,37.181,37.181,0,0,1-10.17,1.227q-7.291,0-11.069-2.267t-2.073-8.9h14.791q-.849,3.042,1.565,3.046a3.256,3.256,0,0,0,2.563-.938A10.806,10.806,0,0,0,126.7,81.66l.968-3.463a21.05,21.05,0,0,1-4.815,2.465,14.648,14.648,0,0,1-4.781.828,11.2,11.2,0,0,1-6.349-1.523,5.44,5.44,0,0,1-2.525-3.987,19.67,19.67,0,0,1,.987-7.037l4.663-16.663q1.828-6.533,5.195-9.4A12.817,12.817,0,0,1,128.658,40a10.5,10.5,0,0,1,4.925,1.078,8.165,8.165,0,0,1,3.308,3.22l2.062-3.467ZM134.456,53a12.259,12.259,0,0,0,.722-4.01c-.1-.577-.6-.87-1.508-.87a2.653,2.653,0,0,0-2.142.991A11.372,11.372,0,0,0,129.892,53l-4.314,15.418a12.088,12.088,0,0,0-.7,3.991q.159.917,1.477.919a2.574,2.574,0,0,0,2.275-1.109,20.2,20.2,0,0,0,1.853-5.009Z" transform="translate(295.393 111.904)" fill="#231f20"/><path d="M158.043,56.946,154.9,68.183a51.826,51.826,0,0,1-3.216,9.072,18.145,18.145,0,0,1-4.416,5.392,18.818,18.818,0,0,1-6.752,3.7,31.741,31.741,0,0,1-16.629.175,8.248,8.248,0,0,1-4.595-3.076,8.853,8.853,0,0,1-1.378-4.978,35.135,35.135,0,0,1,1.621-8.764l3.285-11.753a33.174,33.174,0,0,1,4.306-9.991,17.69,17.69,0,0,1,7.048-5.772A24.277,24.277,0,0,1,144.817,40a21.557,21.557,0,0,1,8.419,1.409,9.562,9.562,0,0,1,4.656,3.642,9.244,9.244,0,0,1,1.443,4.633,27.33,27.33,0,0,1-1.291,7.261M143.761,53.49a14.4,14.4,0,0,0,.828-4.443q-.16-.917-1.515-.919a2.465,2.465,0,0,0-2.07.919,15.752,15.752,0,0,0-1.694,4.443L133.52,74.2a12.684,12.684,0,0,0-.733,4.234c.118.653.619.987,1.5.987a2.408,2.408,0,0,0,2.043-.9,13.115,13.115,0,0,0,1.519-3.873Z" transform="translate(329.85 111.904)" fill="#231f20"/><path d="M176.239,55.365H161.485l1.162-4.143c.539-1.94.695-3.171.467-3.706s-.786-.794-1.667-.794a3.312,3.312,0,0,0-2.468,1.075,7.517,7.517,0,0,0-1.644,3.254,8.047,8.047,0,0,0-.353,4.219q.393,1.413,3.528,3.421,8.994,5.764,10.716,9.467t-.581,11.928q-1.669,5.981-3.991,8.814a17.282,17.282,0,0,1-7.238,4.754,29.226,29.226,0,0,1-10.724,1.918q-6.38,0-10.268-2.21t-4.329-5.635q-.439-3.429,1.322-9.718l1.025-3.661h14.753l-1.906,6.809q-.877,3.144-.505,4.044c.243.6.9.9,1.956.9a3.572,3.572,0,0,0,2.677-1.143,7.907,7.907,0,0,0,1.72-3.387q1.384-4.944.334-6.467-1.082-1.515-6.011-5.077a49.1,49.1,0,0,1-6.387-5.221,8.541,8.541,0,0,1-1.933-4.5,17.773,17.773,0,0,1,.786-7.329q1.806-6.431,4.424-9.4a17.344,17.344,0,0,1,7.09-4.644,28.625,28.625,0,0,1,10.128-1.678,23.506,23.506,0,0,1,10.037,1.83q3.845,1.834,4.481,4.614t-1.227,9.452Z" transform="translate(374.874 104.22)" fill="#231f20"/><path d="M190.51,40.222l-13.637,33.19q-3.241,7.883-4.739,10.75a16.058,16.058,0,0,1-3.649,4.739,13.5,13.5,0,0,1-5.275,2.746,37.588,37.588,0,0,1-9.471.881H144.5l2.051-7.329a20.456,20.456,0,0,0,4.663-.327,1.983,1.983,0,0,0,1.432-1.47,44.621,44.621,0,0,0,.4-4.808l2.385-38.373h13.838L165.614,71.2l11.107-30.976Z" transform="translate(404.219 112.52)" fill="#231f20"/><path d="M193.322,55.492H179.811L180.506,53a12.571,12.571,0,0,0,.737-4.025c-.106-.57-.691-.854-1.747-.854a3.063,3.063,0,0,0-2.142.782,4.8,4.8,0,0,0-1.295,2.332,11.163,11.163,0,0,0-.543,3.095,3.4,3.4,0,0,0,1.322,2.165,30.051,30.051,0,0,0,5.624,3.418q5.8,2.979,7.151,5.605t-.065,7.637A22.67,22.67,0,0,1,185.6,81.61,15.1,15.1,0,0,1,179.07,86a26.759,26.759,0,0,1-9.387,1.538,23.084,23.084,0,0,1-9.478-1.659q-3.674-1.658-4.424-4.5t.851-8.571l.619-2.214h13.5l-.809,2.905a14.223,14.223,0,0,0-.832,4.8q.2,1.111,1.7,1.109a3.674,3.674,0,0,0,2.476-.744,6.769,6.769,0,0,0,1.515-3.133c.608-2.184.718-3.554.319-4.109q-.632-.832-7.5-4.914-5.747-3.452-6.429-6.273a13.276,13.276,0,0,1,.4-6.687q1.538-5.5,3.851-8.1a14.86,14.86,0,0,1,6.5-4.029,28.52,28.52,0,0,1,9.2-1.42,24.15,24.15,0,0,1,8.149,1.162,9.2,9.2,0,0,1,4.5,3.057,5.9,5.9,0,0,1,1.276,3.528,24.65,24.65,0,0,1-1.021,5.081Z" transform="translate(435.106 111.904)" fill="#231f20"/><path d="M194.2,38.61l-2.02,7.23h4.109l-2.028,7.253h-4.109l-6.87,24.547q-1.265,4.534-.9,5.051t4.1.516l-2.07,7.4h-6.152a45.566,45.566,0,0,1-7.318-.395,5.907,5.907,0,0,1-3.414-1.834,4.361,4.361,0,0,1-1.192-3.285,56.85,56.85,0,0,1,2.016-8.692l6.516-23.3H171.59l2.024-7.253H176.9l2.02-7.23Z" transform="translate(465.295 108.01)" fill="#231f20"/><path d="M211.486,64.584H191.751l-2.772,9.923a10.088,10.088,0,0,0-.634,4.01q.239.9,1.637.9a3.142,3.142,0,0,0,2.654-1.2,14.858,14.858,0,0,0,1.876-4.614l1.69-6.046h14.453l-.949,3.384a34,34,0,0,1-2.408,6.539,21.034,21.034,0,0,1-10.64,8.761,25.936,25.936,0,0,1-8.647,1.295,22.883,22.883,0,0,1-8.168-1.28,9.376,9.376,0,0,1-4.773-3.509,9.252,9.252,0,0,1-1.481-4.91,30.157,30.157,0,0,1,1.39-7.792l3.744-13.382a26.944,26.944,0,0,1,4.424-9.486,17.442,17.442,0,0,1,7.3-5.324,25.773,25.773,0,0,1,9.8-1.853q6.408,0,9.961,2.229a8.6,8.6,0,0,1,4.192,5.913q.649,3.685-1.215,10.356Zm-13.2-7.466.942-3.353a16.03,16.03,0,0,0,.866-4.6q-.119-1.042-1.4-1.041a2.537,2.537,0,0,0-2.21.881,20.472,20.472,0,0,0-1.705,4.758l-.938,3.353Z" transform="translate(485.596 111.907)" fill="#231f20"/><path d="M212.174,40.835,210.689,45.2a17.683,17.683,0,0,1,5.316-3.9,14.04,14.04,0,0,1,5.947-1.3q6.112,0,8.168,5.2a19.808,19.808,0,0,1,5.43-3.9,13.379,13.379,0,0,1,5.723-1.3,9.048,9.048,0,0,1,5.951,1.732,5.382,5.382,0,0,1,2.081,4.234,34.082,34.082,0,0,1-1.565,8.142l-9.118,32.6H223.832l8.362-29.9q1.646-5.878,1.6-7.276t-1.625-1.405a2.758,2.758,0,0,0-2.48,1.386,37.69,37.69,0,0,0-2.514,7.295l-8.362,29.9H204.025l8.149-29.141a51.746,51.746,0,0,0,1.9-8.089c.015-.9-.52-1.352-1.6-1.352a3.163,3.163,0,0,0-1.94.71,3.73,3.73,0,0,0-1.272,1.732c-.243.68-.668,2.123-1.287,4.337l-8.9,31.8H184.286l12.831-45.873Z" transform="translate(515.526 111.907)" fill="#231f20"/></g></g></g></svg>